<svg width="24" height="24" viewBox="0 0 24 24" fill="none" xmlns="http://www.w3.org/2000/svg">
  <path d="M22.3 1L13.5 7.4L15.1 3.8L22.3 1Z" fill="#E2761B" stroke="#E2761B" stroke-width="0.1" stroke-linecap="round" stroke-linejoin="round"/>
  <path d="M1.7 1L10.4 7.5L8.9 3.8L1.7 1Z" fill="#E4761B" stroke="#E4761B" stroke-width="0.1" stroke-linecap="round" stroke-linejoin="round"/>
  <path d="M19 15.4L16.8 18.8L21.8 20.1L23 15.5L19 15.4Z" fill="#E4761B" stroke="#E4761B" stroke-width="0.1" stroke-linecap="round" stroke-linejoin="round"/>
  <path d="M1 15.5L2.2 20.1L7.2 18.8L5 15.4L1 15.5Z" fill="#E4761B" stroke="#E4761B" stroke-width="0.1" stroke-linecap="round" stroke-linejoin="round"/>
  <path d="M7 10.6L5.7 12.6L10.6 12.8L10.4 7.5L7 10.6Z" fill="#E4761B" stroke="#E4761B" stroke-width="0.1" stroke-linecap="round" stroke-linejoin="round"/>
  <path d="M17 10.6L13.5 7.4L13.4 12.8L18.3 12.6L17 10.6Z" fill="#E4761B" stroke="#E4761B" stroke-width="0.1" stroke-linecap="round" stroke-linejoin="round"/>
  <path d="M7.2 18.8L10.1 17.4L7.6 15.5L7.2 18.8Z" fill="#E4761B" stroke="#E4761B" stroke-width="0.1" stroke-linecap="round" stroke-linejoin="round"/>
  <path d="M13.9 17.4L16.8 18.8L16.4 15.5L13.9 17.4Z" fill="#E4761B" stroke="#E4761B" stroke-width="0.1" stroke-linecap="round" stroke-linejoin="round"/>
</svg> 